<svg width="29" height="28" viewBox="0 0 29 28" fill="none" xmlns="http://www.w3.org/2000/svg">
<g clip-path="url(#clip0_6370_9468)">
<path fill-rule="evenodd" clip-rule="evenodd" d="M13.3247 8.20312H8.10326L7.00929 3.28125H0.5V4.92188H5.69389L8.60983 18.0469H7.99219C6.63517 18.0469 5.53125 19.1508 5.53125 20.5078C5.53125 21.8648 6.63517 22.9688 7.99219 22.9688H8.9636C8.87167 23.2266 8.8125 23.5001 8.8125 23.7891C8.8125 25.1461 9.91642 26.25 11.2734 26.25C12.6305 26.25 13.7344 25.1461 13.7344 23.7891C13.7344 23.5001 13.6752 23.2266 13.5833 22.9688H17.1667C17.0748 23.2266 17.0156 23.5001 17.0156 23.7891C17.0156 25.1461 18.1195 26.25 19.4766 26.25C20.8336 26.25 21.9375 25.1461 21.9375 23.7891C21.9375 23.5001 21.8783 23.2266 21.7864 22.9688H23.5781V21.3281H7.99219C7.53959 21.3281 7.17188 20.9604 7.17188 20.5078C7.17188 20.0552 7.53959 19.6875 7.99219 19.6875H23.3923L24.4002 15.8001C23.8241 16.0198 23.2166 16.1761 22.5864 16.2605L22.1233 18.0469H19.1372L19.3047 16.0373C18.7474 15.8828 18.2141 15.6707 17.7116 15.4079L17.4916 18.0469H14.8989L14.6254 14.7656H16.6791C16.0444 14.3019 15.479 13.7489 15.0016 13.125H14.4888L14.4156 12.2472C13.7274 11.0565 13.3312 9.67582 13.3247 8.20312ZM10.2911 18.0469H13.2534L12.9799 14.7656H9.56177L10.2911 18.0469ZM12.5698 9.84375H8.46786L9.19723 13.125H12.8433L12.5698 9.84375ZM11.2734 24.6094C11.726 24.6094 12.0938 24.2417 12.0938 23.7891C12.0938 23.3365 11.726 22.9688 11.2734 22.9688C10.8208 22.9688 10.4531 23.3365 10.4531 23.7891C10.4531 24.2417 10.8208 24.6094 11.2734 24.6094ZM19.4766 24.6094C19.9292 24.6094 20.2969 24.2417 20.2969 23.7891C20.2969 23.3365 19.9292 22.9688 19.4766 22.9688C19.024 22.9688 18.6563 23.3365 18.6563 23.7891C18.6563 24.2417 19.024 24.6094 19.4766 24.6094Z" fill="#1D9F22"/>
<path fill-rule="evenodd" clip-rule="evenodd" d="M21.4912 13.5337C24.4551 13.5337 26.8579 11.1309 26.8579 8.16699C26.8579 5.20306 24.4551 2.80033 21.4912 2.80033C18.5273 2.80033 16.1245 5.20306 16.1245 8.16699C16.1245 11.1309 18.5273 13.5337 21.4912 13.5337ZM21.4912 15.167C25.3572 15.167 28.4912 12.033 28.4912 8.16699C28.4912 4.301 25.3572 1.16699 21.4912 1.16699C17.6252 1.16699 14.4912 4.301 14.4912 8.16699C14.4912 12.033 17.6252 15.167 21.4912 15.167Z" fill="#1D9F22"/>
<path fill-rule="evenodd" clip-rule="evenodd" d="M20.6753 11.667L20.6753 4.66699L22.3086 4.66699L22.3086 11.667L20.6753 11.667Z" fill="#1D9F22"/>
<path fill-rule="evenodd" clip-rule="evenodd" d="M17.9912 7.36667L24.9912 7.36667L24.9912 9L17.9912 9L17.9912 7.36667Z" fill="#1D9F22"/>
</g>
<defs>
<clipPath id="clip0_6370_9468">
<rect width="28" height="28" fill="white" transform="translate(0.5)"/>
</clipPath>
</defs>
</svg>
