<svg width="20" height="20" viewBox="0 0 20 20" fill="none" xmlns="http://www.w3.org/2000/svg">
<g clip-path="url(#clip0_2349_83417)">
<path d="M8.54167 7.08301H0.833333C0.373333 7.08301 0 7.45634 0 7.91634V12.083C0 12.543 0.373333 12.9163 0.833333 12.9163H8.54167C9.00167 12.9163 9.375 12.543 9.375 12.083V7.91634C9.375 7.45634 9.00167 7.08301 8.54167 7.08301Z" fill="#8B96B1"/>
<path d="M8.54167 0H0.833333C0.373333 0 0 0.373333 0 0.833333V5C0 5.46 0.373333 5.83333 0.833333 5.83333H8.54167C9.00167 5.83333 9.375 5.46 9.375 5V0.833333C9.375 0.373333 9.00167 0 8.54167 0Z" fill="#8B96B1"/>
<path d="M0 15.0003V19.167C0 19.627 0.373333 20.0003 0.833333 20.0003H8.54167C9.00167 20.0003 9.375 19.627 9.375 19.167V15.0003C9.375 14.5403 9.00167 14.167 8.54167 14.167H0.833333C0.373333 14.167 0 14.5403 0 15.0003Z" fill="#8B96B1"/>
<path d="M19.1667 0H11.4583C10.9983 0 10.625 0.373333 10.625 0.833333V5C10.625 5.46 10.9983 5.83333 11.4583 5.83333H19.1667C19.6267 5.83333 20 5.46 20 5V0.833333C20 0.373333 19.6267 0 19.1667 0Z" fill="#8B96B1"/>
<path d="M11.4583 12.9163H19.1667C19.6267 12.9163 20 12.543 20 12.083V7.91634C20 7.45634 19.6267 7.08301 19.1667 7.08301H11.4583C10.9983 7.08301 10.625 7.45634 10.625 7.91634V12.083C10.625 12.543 10.9983 12.9163 11.4583 12.9163Z" fill="#8B96B1"/>
<path d="M11.4583 20.0003H19.1667C19.6267 20.0003 20 19.627 20 19.167V15.0003C20 14.5403 19.6267 14.167 19.1667 14.167H11.4583C10.9983 14.167 10.625 14.5403 10.625 15.0003V19.167C10.625 19.627 10.9983 20.0003 11.4583 20.0003Z" fill="#8B96B1"/>
</g>
<defs>
<clipPath id="clip0_2349_83417">
<rect width="20" height="20" fill="white"/>
</clipPath>
</defs>
</svg>
