<svg width="20" height="20" viewBox="0 0 20 20" fill="none" xmlns="http://www.w3.org/2000/svg">
<g clip-path="url(#clip0_2349_83418)">
<path d="M0 11.4583V19.1667C0 19.6267 0.373333 20 0.833333 20H5C5.46 20 5.83333 19.6267 5.83333 19.1667V11.4583C5.83333 10.9983 5.46 10.625 5 10.625H0.833333C0.373333 10.625 0 10.9983 0 11.4583Z" fill="#054EDB"/>
<path d="M5 0H0.833333C0.373333 0 0 0.373333 0 0.833333V8.54167C0 9.00167 0.373333 9.375 0.833333 9.375H5C5.46 9.375 5.83333 9.00167 5.83333 8.54167V0.833333C5.83333 0.373333 5.46 0 5 0Z" fill="#054EDB"/>
<path d="M12.9163 8.54167V0.833333C12.9163 0.373333 12.543 0 12.083 0H7.91634C7.45634 0 7.08301 0.373333 7.08301 0.833333V8.54167C7.08301 9.00167 7.45634 9.375 7.91634 9.375H12.083C12.543 9.375 12.9163 9.00167 12.9163 8.54167Z" fill="#054EDB"/>
<path d="M15.0003 20H19.167C19.627 20 20.0003 19.6267 20.0003 19.1667V11.4583C20.0003 10.9983 19.627 10.625 19.167 10.625H15.0003C14.5403 10.625 14.167 10.9983 14.167 11.4583V19.1667C14.167 19.6267 14.5403 20 15.0003 20Z" fill="#054EDB"/>
<path d="M7.08301 11.4583V19.1667C7.08301 19.6267 7.45634 20 7.91634 20H12.083C12.543 20 12.9163 19.6267 12.9163 19.1667V11.4583C12.9163 10.9983 12.543 10.625 12.083 10.625H7.91634C7.45634 10.625 7.08301 10.9983 7.08301 11.4583Z" fill="#054EDB"/>
<path d="M19.167 0H15.0003C14.5403 0 14.167 0.373333 14.167 0.833333V8.54167C14.167 9.00167 14.5403 9.375 15.0003 9.375H19.167C19.627 9.375 20.0003 9.00167 20.0003 8.54167V0.833333C20.0003 0.373333 19.627 0 19.167 0Z" fill="#054EDB"/>
</g>
<defs>
<clipPath id="clip0_2349_83418">
<rect width="20" height="20" fill="white"/>
</clipPath>
</defs>
</svg>
