<svg width="32" height="32" viewBox="0 0 32 32" fill="none" xmlns="http://www.w3.org/2000/svg">
<rect width="32" height="32" rx="16" fill="#054EDB"/>
<g clip-path="url(#clip0_2_28)">
<path d="M23.5028 9.94686L22.053 8.49686C21.3905 7.8344 20.3126 7.83443 19.6502 8.49686L19.0827 9.06439L22.9353 12.9173L23.5028 12.3498C24.1668 11.6858 24.1669 10.611 23.5028 9.94686Z" fill="white"/>
<path d="M8.68793 19.7733L8.0079 23.4459C7.9798 23.5976 8.02818 23.7535 8.13734 23.8627C8.24662 23.972 8.40255 24.0203 8.55415 23.9922L12.2264 23.3121L8.68793 19.7733Z" fill="white"/>
<path d="M18.4195 9.72732L9.19424 18.9533L13.0469 22.8062L22.2721 13.5802L18.4195 9.72732Z" fill="white"/>
</g>
<defs>
<clipPath id="clip0_2_28">
<rect width="16" height="16" fill="white" transform="translate(8 8)"/>
</clipPath>
</defs>
</svg>
