<svg width="20" height="20" viewBox="0 0 20 20" fill="none" xmlns="http://www.w3.org/2000/svg">
<g clip-path="url(#clip0_1955_82840)">
<path d="M8.84068 11.3496H4.08901C3.77342 11.3496 3.51758 11.6054 3.51758 11.921V15.5208C3.51758 15.8364 3.77342 16.0922 4.08901 16.0922H8.84068C9.15627 16.0922 9.41211 15.8364 9.41211 15.5208V11.921C9.41211 11.6054 9.15627 11.3496 8.84068 11.3496Z" fill="#CDDAF1"/>
<path d="M14.6908 3.51562C14.69 3.51562 14.6894 3.51625 14.6894 3.51703C14.6894 4.37453 14.4579 5.17892 14.0543 5.87115C13.789 6.32603 14.0834 7.03406 14.61 7.03406H19.429C19.7446 7.03406 20.0004 6.77823 20.0004 6.46263V4.08705C20.0004 3.77146 19.7446 3.51562 19.429 3.51562H14.6908Z" fill="#CDDAF1"/>
<path d="M5.31106 3.51703C5.31106 3.51625 5.31043 3.51562 5.30965 3.51562H0.571429C0.255838 3.51562 0 3.77146 0 4.08705V6.46263C0 6.77823 0.255837 7.03406 0.571429 7.03406H5.39055C5.91711 7.03406 6.21148 6.32607 5.94622 5.8712C5.54253 5.17895 5.31106 4.37455 5.31106 3.51703Z" fill="#CDDAF1"/>
<path d="M15.9129 11.3496H13.5011C13.1855 11.3496 12.9297 11.6054 12.9297 11.921V19.429C12.9297 19.7446 13.1855 20.0004 13.5011 20.0004H15.9129C16.2285 20.0004 16.4844 19.7446 16.4844 19.429V11.921C16.4844 11.6054 16.2285 11.3496 15.9129 11.3496Z" fill="#CDDAF1"/>
<path d="M0.571429 8.20508C0.255837 8.20508 0 8.46092 0 8.77651V19.4277C0 19.7433 0.255837 19.9991 0.571429 19.9991H11.1864C11.502 19.9991 11.7578 19.7433 11.7578 19.4277V10.7479C11.7578 10.4323 12.0136 10.1764 12.3292 10.1764H17.0848C17.4004 10.1764 17.6562 10.4323 17.6562 10.7479V19.4277C17.6562 19.7433 17.9121 19.9991 18.2277 19.9991H19.4286C19.7442 19.9991 20 19.7433 20 19.4277V8.77651C20 8.46092 19.7442 8.20508 19.4286 8.20508H0.571429ZM10.5841 16.6911C10.5841 17.0067 10.3282 17.2626 10.0126 17.2626H2.91705C2.60146 17.2626 2.34562 17.0067 2.34562 16.6911V10.7479C2.34562 10.4323 2.60146 10.1764 2.91705 10.1764H10.0126C10.3282 10.1764 10.5841 10.4323 10.5841 10.7479V16.6911Z" fill="#CDDAF1"/>
<path d="M10.0004 0C8.06113 0 6.4834 1.57773 6.4834 3.51703C6.4834 5.45633 8.06113 7.03406 10.0004 7.03406C11.9397 7.03406 13.5175 5.45637 13.5175 3.51703C13.5175 1.57773 11.9397 0 10.0004 0ZM11.7596 4.10297H10.5864V5.27625H9.41449V4.10297H8.24121V2.93109H9.41449V1.75781H10.5864V2.93109H11.7596V4.10297Z" fill="#CDDAF1"/>
</g>
<defs>
<clipPath id="clip0_1955_82840">
<rect width="20" height="20" fill="white"/>
</clipPath>
</defs>
</svg>
