<svg width="20" height="20" viewBox="0 0 20 20" fill="none" xmlns="http://www.w3.org/2000/svg">
<path fill-rule="evenodd" clip-rule="evenodd" d="M18.1985 3.26976C17.1144 2.18565 15.6445 1.57587 14.1113 1.57422C13.3202 1.57514 12.5372 1.73814 11.8115 2.05317C11.134 2.34724 10.5195 2.76795 10.0007 3.29223C9.22372 2.50702 8.23713 1.95996 7.15716 1.71747C6.0258 1.46345 4.84421 1.55539 3.76577 1.98138C2.68734 2.40736 1.76186 3.1477 1.10949 4.1063C0.457124 5.0649 0.107993 6.19754 0.107422 7.35706C0.107422 8.79907 0.688406 10.2234 1.55141 11.545C2.415 12.8675 3.56786 14.0978 4.72854 15.1549C7.04015 17.2601 9.40046 18.6941 9.62144 18.8167C9.7389 18.8867 9.8731 18.9237 10.0099 18.9237C10.1471 18.9237 10.2818 18.8864 10.3996 18.816C10.6006 18.6997 12.9609 17.2647 15.2752 15.1548C16.4348 14.0978 17.587 12.8675 18.4503 11.545C19.313 10.2234 19.894 8.7989 19.894 7.3569C19.8924 5.82375 19.2826 4.35386 18.1985 3.26976ZM10.3996 18.816L10.4007 18.8153L10.3235 18.6867L10.3985 18.8166L10.3996 18.816Z" fill="#CDDAF1"/>
</svg>
