<svg width="20" height="20" viewBox="0 0 20 20" fill="none" xmlns="http://www.w3.org/2000/svg">
<path fill-rule="evenodd" clip-rule="evenodd" d="M11.667 2.49935C11.667 2.03911 12.0401 1.66602 12.5003 1.66602H15.8337C16.4967 1.66602 17.1326 1.92941 17.6014 2.39825C18.0703 2.86709 18.3337 3.50297 18.3337 4.16602V15.8327C18.3337 16.4957 18.0703 17.1316 17.6014 17.6005C17.1326 18.0693 16.4967 18.3327 15.8337 18.3327H12.5003C12.0401 18.3327 11.667 17.9596 11.667 17.4993C11.667 17.0391 12.0401 16.666 12.5003 16.666H15.8337C16.0547 16.666 16.2666 16.5782 16.4229 16.4219C16.5792 16.2657 16.667 16.0537 16.667 15.8327V4.16602C16.667 3.945 16.5792 3.73304 16.4229 3.57676C16.2666 3.42048 16.0547 3.33268 15.8337 3.33268H12.5003C12.0401 3.33268 11.667 2.95959 11.667 2.49935Z" fill="#8B96B1"/>
<path fill-rule="evenodd" clip-rule="evenodd" d="M7.74408 5.24408C8.06951 4.91864 8.59715 4.91864 8.92259 5.24408L13.0893 9.41074C13.4147 9.73618 13.4147 10.2638 13.0893 10.5893L8.92259 14.7559C8.59715 15.0814 8.06951 15.0814 7.74408 14.7559C7.41864 14.4305 7.41864 13.9028 7.74408 13.5774L11.3215 10L7.74408 6.42259C7.41864 6.09715 7.41864 5.56951 7.74408 5.24408Z" fill="#8B96B1"/>
<path fill-rule="evenodd" clip-rule="evenodd" d="M1.66699 9.99935C1.66699 9.53911 2.04009 9.16602 2.50033 9.16602H12.5003C12.9606 9.16602 13.3337 9.53911 13.3337 9.99935C13.3337 10.4596 12.9606 10.8327 12.5003 10.8327H2.50033C2.04009 10.8327 1.66699 10.4596 1.66699 9.99935Z" fill="#8B96B1"/>
</svg>
