<svg width="20" height="22" viewBox="0 0 20 22" fill="none" xmlns="http://www.w3.org/2000/svg">
<path d="M19.052 15.995L17.7695 14.15C17.5944 13.8992 17.5002 13.6009 17.4995 13.295V8C17.4995 6.01088 16.7093 4.10322 15.3028 2.6967C13.8963 1.29018 11.9886 0.5 9.99951 0.5C8.01039 0.5 6.10273 1.29018 4.69621 2.6967C3.28969 4.10322 2.49951 6.01088 2.49951 8V13.295C2.49879 13.6009 2.40458 13.8992 2.22951 14.15L0.94701 15.995C0.75282 16.2102 0.625123 16.477 0.579362 16.7632C0.533601 17.0494 0.571735 17.3427 0.689154 17.6077C0.806573 17.8727 0.998246 18.098 1.241 18.2563C1.48375 18.4147 1.76718 18.4993 2.05701 18.5H6.32451C6.49665 19.3477 6.95656 20.1099 7.62632 20.6573C8.29608 21.2047 9.13449 21.5038 9.99951 21.5038C10.8645 21.5038 11.7029 21.2047 12.3727 20.6573C13.0425 20.1099 13.5024 19.3477 13.6745 18.5H17.942C18.2318 18.4993 18.5153 18.4147 18.758 18.2563C19.0008 18.098 19.1924 17.8727 19.3099 17.6077C19.4273 17.3427 19.4654 17.0494 19.4197 16.7632C19.3739 16.477 19.2462 16.2102 19.052 15.995ZM9.99951 20C9.5353 19.9987 9.08286 19.8538 8.70421 19.5853C8.32556 19.3167 8.03925 18.9377 7.88451 18.5H12.1145C11.9598 18.9377 11.6735 19.3167 11.2948 19.5853C10.9162 19.8538 10.4637 19.9987 9.99951 20ZM2.05701 17C2.09091 16.9685 2.1211 16.9333 2.14701 16.895L3.45951 15.005C3.80964 14.5034 3.99806 13.9067 3.99951 13.295V8C3.99951 6.4087 4.63165 4.88258 5.75687 3.75736C6.88209 2.63214 8.40821 2 9.99951 2C11.5908 2 13.1169 2.63214 14.2422 3.75736C15.3674 4.88258 15.9995 6.4087 15.9995 8V13.295C16.001 13.9067 16.1894 14.5034 16.5395 15.005L17.852 16.895C17.8779 16.9333 17.9081 16.9685 17.942 17H2.05701Z" fill="#8B96B1"/>
</svg>
