<svg width="18" height="18" viewBox="0 0 18 18" fill="none" xmlns="http://www.w3.org/2000/svg">
<path d="M16.8207 13.7937C17.0154 13.9891 17.1614 14.2276 17.2467 14.4899C17.3321 14.7522 17.3546 15.0309 17.3122 15.3035C17.2699 15.576 17.1639 15.8348 17.0029 16.0588C16.842 16.2828 16.6305 16.4658 16.3857 16.5929C14.9866 17.3406 13.3565 17.5318 11.8223 17.1279C7.75067 16.1029 1.89817 10.2504 0.873166 6.17869C0.469269 4.64457 0.660381 3.01446 1.40817 1.61536C1.53525 1.37052 1.7182 1.15906 1.94221 0.99809C2.16622 0.837119 2.42498 0.731163 2.69756 0.688804C2.97014 0.646445 3.24886 0.668873 3.51115 0.754271C3.77345 0.839669 4.01195 0.985637 4.20733 1.18036L5.94483 2.91702C6.1954 3.16507 6.36494 3.4832 6.43114 3.82951C6.49734 4.17581 6.45708 4.53405 6.31567 4.85702C6.16092 5.21939 5.94119 5.55039 5.66733 5.83369C3.68067 7.82036 10.1815 14.3212 12.1673 12.3337C12.4507 12.0589 12.782 11.8383 13.1448 11.6829C13.4678 11.5412 13.8261 11.5008 14.1724 11.567C14.5188 11.6332 14.8369 11.8029 15.0848 12.0537L16.8207 13.7937Z" fill="#CDDAF1"/>
</svg>
