<svg width="20" height="20" viewBox="0 0 20 20" fill="none" xmlns="http://www.w3.org/2000/svg">
<path d="M9.99967 0.833984C4.96919 0.833984 0.833008 4.97016 0.833008 10.0007C0.833008 15.0311 4.96919 19.1673 9.99967 19.1673C15.0302 19.1673 19.1663 15.0311 19.1663 10.0007C19.1663 4.97016 15.0302 0.833984 9.99967 0.833984ZM14.2924 10.8502H10.8493C10.4458 10.8502 10.2394 10.8502 9.76991 10.8502C9.43869 10.8502 9.15008 10.5557 9.15008 10.1976C9.15008 9.83952 9.15008 9.15106 9.15008 9.15106V4.73913C9.15008 4.24726 9.53016 3.88954 9.99967 3.88954C10.4692 3.88954 10.8493 4.26962 10.8493 4.73913V9.15106H14.2924C14.7842 9.15106 15.1419 9.53114 15.1419 10.0007C15.1419 10.4702 14.7619 10.8502 14.2924 10.8502Z" fill="#CDDAF1"/>
</svg>
