<svg width="15" height="16" viewBox="0 0 15 16" fill="none" xmlns="http://www.w3.org/2000/svg">
<path fill-rule="evenodd" clip-rule="evenodd" d="M5.25 2.75V2.375C5.25 1.87775 5.448 1.40075 5.79975 1.049C6.15075 0.69725 6.62775 0.5 7.125 0.5H7.875C8.37225 0.5 8.84925 0.69725 9.201 1.049C9.55275 1.40075 9.75 1.87775 9.75 2.375V2.75H13.5C13.914 2.75 14.25 3.086 14.25 3.5C14.25 3.914 13.914 4.25 13.5 4.25H12.75V12.5C12.75 14.1567 11.4075 15.5 9.75 15.5C8.376 15.5 6.62475 15.5 5.25 15.5C3.59325 15.5 2.25 14.1567 2.25 12.5V4.25H1.5C1.086 4.25 0.75 3.914 0.75 3.5C0.75 3.086 1.086 2.75 1.5 2.75H5.25ZM11.25 4.25H3.75V12.5C3.75 13.3287 4.422 14 5.25 14H9.75C10.5787 14 11.25 13.3287 11.25 12.5V4.25ZM8.25 6.5V11.75C8.25 12.164 8.586 12.5 9 12.5C9.414 12.5 9.75 12.164 9.75 11.75V6.5C9.75 6.086 9.414 5.75 9 5.75C8.586 5.75 8.25 6.086 8.25 6.5ZM5.25 6.5V11.75C5.25 12.164 5.586 12.5 6 12.5C6.414 12.5 6.75 12.164 6.75 11.75V6.5C6.75 6.086 6.414 5.75 6 5.75C5.586 5.75 5.25 6.086 5.25 6.5ZM8.25 2.75V2.375C8.25 2.27525 8.211 2.18 8.1405 2.1095C8.07 2.03975 7.97475 2 7.875 2C7.62975 2 7.37025 2 7.125 2C7.026 2 6.93075 2.03975 6.86025 2.1095C6.78975 2.18 6.75 2.27525 6.75 2.375V2.75H8.25Z" fill="#6E7AA5"/>
</svg>
