<svg width="23" height="23" viewBox="0 0 23 23" fill="none" xmlns="http://www.w3.org/2000/svg">
<path fill-rule="evenodd" clip-rule="evenodd" d="M19.5518 3.8389C17.4665 1.75111 14.6932 0.600834 11.7386 0.599609C5.65053 0.599609 0.695683 5.55432 0.693234 11.6441C0.692418 13.5908 1.20096 15.4911 2.16758 17.1661L0.600586 22.8896L6.45593 21.3536C8.06931 22.2337 9.88568 22.6975 11.7342 22.6981H11.7388C17.8262 22.6981 22.7816 17.7429 22.7839 11.6529C22.7851 8.7015 21.6373 5.92654 19.5518 3.8389ZM11.7386 20.8327H11.7348C10.0876 20.832 8.47201 20.3893 7.06229 19.553L6.72721 19.354L3.25256 20.2655L4.17999 16.8778L3.96164 16.5305C3.04264 15.0688 2.55735 13.3794 2.55817 11.6447C2.56008 6.58311 6.6785 2.46509 11.7423 2.46509C14.1944 2.46591 16.4995 3.42205 18.2327 5.15733C19.966 6.89262 20.9199 9.19916 20.9191 11.6522C20.9169 16.7143 16.7988 20.8327 11.7386 20.8327ZM16.7743 13.957C16.4984 13.8188 15.1415 13.1513 14.8884 13.0591C14.6356 12.967 14.4514 12.9211 14.2676 13.1973C14.0836 13.4735 13.5547 14.0952 13.3937 14.2793C13.2326 14.4635 13.0718 14.4866 12.7957 14.3484C12.5197 14.2103 11.6305 13.9188 10.5763 12.9786C9.75589 12.2468 9.20204 11.343 9.04096 11.0668C8.88015 10.7904 9.0396 10.6554 9.16205 10.5036C9.4608 10.1326 9.75997 9.74362 9.85194 9.55955C9.94405 9.37534 9.89793 9.21413 9.82881 9.07604C9.75997 8.93795 9.20803 7.57952 8.97811 7.02676C8.7539 6.48883 8.52657 6.56148 8.35705 6.55304C8.19625 6.54501 8.01217 6.54338 7.8281 6.54338C7.64417 6.54338 7.34513 6.61236 7.09208 6.88881C6.83917 7.16512 6.12628 7.8327 6.12628 9.19113C6.12628 10.5496 7.11521 11.8619 7.25316 12.0461C7.39112 12.2303 9.19932 15.0179 11.9677 16.2132C12.6262 16.4978 13.1402 16.6675 13.5411 16.7947C14.2023 17.0047 14.8038 16.9751 15.2794 16.9041C15.8097 16.8248 16.9121 16.2363 17.1423 15.5918C17.3722 14.947 17.3722 14.3945 17.3031 14.2793C17.2343 14.1642 17.0502 14.0952 16.7743 13.957Z" fill="#1D9F22"/>
</svg>
